<svg xmlns="http://www.w3.org/2000/svg" xmlns:xlink="http://www.w3.org/1999/xlink" width="1920" zoomAndPan="magnify" viewBox="0 0 1440 809.999993" height="1080" preserveAspectRatio="xMidYMid meet" version="1.0"><defs><clipPath id="e9155ba4f8"><path d="M 373.015625 210.367188 L 1066.765625 210.367188 L 1066.765625 599.617188 L 373.015625 599.617188 Z M 373.015625 210.367188 " clip-rule="nonzero"/></clipPath><clipPath id="6b1881ec6f"><path d="M 606 404 L 978 404 L 978 599.617188 L 606 599.617188 Z M 606 404 " clip-rule="nonzero"/></clipPath><clipPath id="e3701f1225"><path d="M 751 404 L 978 404 L 978 599.617188 L 751 599.617188 Z M 751 404 " clip-rule="nonzero"/></clipPath><clipPath id="f91488936c"><path d="M 373.015625 496 L 727 496 L 727 599.617188 L 373.015625 599.617188 Z M 373.015625 496 " clip-rule="nonzero"/></clipPath><clipPath id="85f971bb5a"><path d="M 519 496 L 727 496 L 727 599.617188 L 519 599.617188 Z M 519 496 " clip-rule="nonzero"/></clipPath><clipPath id="a20edc2d0e"><path d="M 752 446 L 1046 446 L 1046 599.617188 L 752 599.617188 Z M 752 446 " clip-rule="nonzero"/></clipPath><clipPath id="c0de4fbbfd"><path d="M 876 446 L 1046 446 L 1046 599.617188 L 876 599.617188 Z M 876 446 " clip-rule="nonzero"/></clipPath><clipPath id="ff580b4e87"><path d="M 532 510 L 758 510 L 758 599.617188 L 532 599.617188 Z M 532 510 " clip-rule="nonzero"/></clipPath><clipPath id="09ff07732d"><path d="M 627 510 L 758 510 L 758 599.617188 L 627 599.617188 Z M 627 510 " clip-rule="nonzero"/></clipPath><clipPath id="0f6b4d5ce1"><path d="M 848 483 L 1066.765625 483 L 1066.765625 599.617188 L 848 599.617188 Z M 848 483 " clip-rule="nonzero"/></clipPath><clipPath id="847bb52bd3"><path d="M 964 483 L 1066.765625 483 L 1066.765625 599.617188 L 964 599.617188 Z M 964 483 " clip-rule="nonzero"/></clipPath><clipPath id="a3d653047e"><path d="M 687 507 L 898 507 L 898 599.617188 L 687 599.617188 Z M 687 507 " clip-rule="nonzero"/></clipPath><clipPath id="4f1be9e54d"><path d="M 781 507 L 898 507 L 898 599.617188 L 781 599.617188 Z M 781 507 " clip-rule="nonzero"/></clipPath></defs><rect x="-144" width="1728" fill="#ffffff" y="-80.999999" height="971.999992" fill-opacity="1"/><g clip-path="url(#e9155ba4f8)"><path fill="#efecea" d="M 373.449219 210.367188 L 1066.328125 210.367188 L 1066.328125 599.617188 L 373.449219 599.617188 Z M 373.449219 210.367188 " fill-opacity="1" fill-rule="nonzero"/></g><g clip-path="url(#6b1881ec6f)"><path fill="#e4e4e4" d="M 787.878906 404.992188 L 606.863281 599.617188 L 977.984375 599.617188 Z M 787.878906 404.992188 " fill-opacity="1" fill-rule="nonzero"/></g><g clip-path="url(#e3701f1225)"><path fill="#ddd8d8" d="M 787.878906 404.992188 L 751.457031 599.617188 L 977.984375 599.617188 Z M 787.878906 404.992188 " fill-opacity="1" fill-rule="nonzero"/></g><g clip-path="url(#f91488936c)"><path fill="#e5e4e5" d="M 347.46875 599.617188 L 545.804688 496.683594 L 726.816406 599.617188 Z M 347.46875 599.617188 " fill-opacity="1" fill-rule="nonzero"/></g><g clip-path="url(#85f971bb5a)"><path fill="#e2d6d8" d="M 519.386719 599.617188 L 545.804688 496.683594 L 726.816406 599.617188 Z M 519.386719 599.617188 " fill-opacity="1" fill-rule="nonzero"/></g><g clip-path="url(#a20edc2d0e)"><path fill="#e7e3e7" d="M 894.40625 446.511719 L 1045.539062 599.617188 L 752.800781 599.617188 Z M 894.40625 446.511719 " fill-opacity="1" fill-rule="nonzero"/></g><g clip-path="url(#c0de4fbbfd)"><path fill="#e6d5da" d="M 894.40625 446.511719 L 1045.539062 599.617188 L 876.652344 599.617188 Z M 894.40625 446.511719 " fill-opacity="1" fill-rule="nonzero"/></g><g clip-path="url(#ff580b4e87)"><path fill="#e8e3e8" d="M 651.035156 510.953125 L 757.132812 599.617188 L 532.378906 599.617188 Z M 651.035156 510.953125 " fill-opacity="1" fill-rule="nonzero"/></g><g clip-path="url(#09ff07732d)"><path fill="#e8d3dd" d="M 627.648438 599.617188 L 651.035156 510.953125 L 757.132812 599.617188 Z M 627.648438 599.617188 " fill-opacity="1" fill-rule="nonzero"/></g><g clip-path="url(#0f6b4d5ce1)"><path fill="#eae2ea" d="M 1113.960938 599.617188 L 980.152344 483.707031 L 848.070312 599.617188 Z M 1113.960938 599.617188 " fill-opacity="1" fill-rule="nonzero"/></g><g clip-path="url(#847bb52bd3)"><path fill="#e9d2e2" d="M 1113.960938 599.617188 L 980.152344 483.707031 L 964.5625 599.617188 Z M 1113.960938 599.617188 " fill-opacity="1" fill-rule="nonzero"/></g><g clip-path="url(#a3d653047e)"><path fill="#ebe2eb" d="M 897.4375 599.617188 L 793.941406 507.496094 L 687.410156 599.617188 Z M 897.4375 599.617188 " fill-opacity="1" fill-rule="nonzero"/></g><g clip-path="url(#4f1be9e54d)"><path fill="#e8d2e8" d="M 781.816406 599.617188 L 897.4375 599.617188 L 793.941406 507.496094 Z M 781.816406 599.617188 " fill-opacity="1" fill-rule="nonzero"/></g></svg>